<?xml version="1.0" standalone="no"?>
<!DOCTYPE svg PUBLIC "-//W3C//DTD SVG 20010904//EN"
 "http://www.w3.org/TR/2001/REC-SVG-20010904/DTD/svg10.dtd">
<svg version="1.0" xmlns="http://www.w3.org/2000/svg"
 width="294.000000pt" height="294.000000pt" viewBox="0 0 294.000000 294.000000"
 preserveAspectRatio="xMidYMid meet">
<metadata>
Created by potrace 1.11, written by Peter Selinger 2001-2013
</metadata>
<g transform="translate(0.000000,294.000000) scale(0.100000,-0.100000)"
fill="#000000" stroke="none">
<path d="M914 2600 c92 -184 97 -228 32 -282 -32 -26 -108 -24 -140 5 -15 12
-60 92 -102 177 l-76 155 -24 -30 c-82 -100 -100 -237 -47 -355 45 -102 149
-181 261 -200 l68 -11 52 -105 52 -104 60 0 60 0 -42 84 c-41 83 -44 110 -13
122 24 10 47 -17 95 -115 l44 -91 63 0 63 0 -86 171 c-77 155 -84 173 -70 188
66 72 83 242 34 341 -58 119 -158 188 -285 197 l-74 6 75 -153z"/>
<path d="M1386 2329 c-86 -14 -186 -95 -186 -151 0 -10 19 -60 43 -111 l43
-92 111 -63 c61 -34 116 -69 123 -77 11 -13 -21 -15 -265 -15 -308 0 -327 -3
-365 -65 -34 -55 -24 -108 28 -153 25 -21 26 -24 9 -33 -21 -13 -47 -61 -47
-89 0 -38 32 -90 64 -107 17 -8 32 -17 34 -18 1 -1 -4 -15 -13 -31 -20 -39
-19 -73 4 -110 17 -28 73 -64 100 -64 15 0 13 -11 -4 -34 -33 -44 -9 -119 48
-155 33 -20 47 -21 343 -21 l309 0 41 53 c23 28 46 62 53 75 12 22 12 22 286
22 l275 0 -2 333 -3 332 -162 3 c-114 2 -163 6 -163 14 0 6 -14 33 -31 60 -40
62 -114 114 -294 207 -204 106 -266 159 -300 258 -15 43 -15 43 -79 32z"/>
<path d="M1230 898 c1 -7 11 -33 24 -57 l23 -44 -33 -54 c-77 -129 -69 -291
23 -416 64 -88 179 -147 283 -147 33 0 60 2 60 3 0 2 -36 79 -80 170 -89 186
-96 219 -55 273 51 67 150 67 198 1 13 -18 57 -101 98 -186 l74 -153 37 42
c26 29 45 66 60 113 51 171 -23 352 -180 435 l-60 32 -236 0 c-182 0 -236 -3
-236 -12z"/>
</g>
</svg>
