<?xml version="1.0" standalone="no"?>
<!DOCTYPE svg PUBLIC "-//W3C//DTD SVG 20010904//EN"
 "http://www.w3.org/TR/2001/REC-SVG-20010904/DTD/svg10.dtd">
<svg version="1.0" xmlns="http://www.w3.org/2000/svg"
 width="294.000000pt" height="294.000000pt" viewBox="0 0 294.000000 294.000000"
 preserveAspectRatio="xMidYMid meet">
<metadata>
Created by potrace 1.11, written by Peter Selinger 2001-2013
</metadata>
<g transform="translate(0.000000,294.000000) scale(0.100000,-0.100000)"
fill="#000000" stroke="none">
<path d="M840 2750 c0 -5 34 -77 75 -161 42 -84 75 -164 75 -180 0 -56 -56
-109 -115 -109 -62 0 -81 23 -161 188 -42 86 -78 159 -80 161 -7 8 -44 -31
-68 -73 -54 -94 -58 -215 -10 -313 50 -103 165 -187 273 -200 l52 -6 55 -108
54 -109 60 0 c33 0 60 4 60 10 0 5 -19 48 -42 96 -41 82 -42 86 -24 99 29 22
44 6 100 -101 l51 -99 63 -3 c46 -2 62 0 62 10 -1 7 -38 85 -83 174 l-82 160
32 53 c35 59 49 132 40 215 -15 139 -116 254 -259 292 -61 16 -128 18 -128 4z"/>
<path d="M1350 2325 c-56 -17 -128 -77 -146 -121 -13 -32 -12 -38 34 -131 l47
-98 125 -75 125 -75 -290 -5 c-205 -4 -296 -9 -312 -17 -40 -24 -63 -63 -63
-110 0 -38 6 -51 33 -78 l33 -33 -28 -31 c-22 -25 -28 -41 -28 -77 0 -39 5
-51 33 -78 17 -18 38 -35 46 -37 11 -4 11 -9 2 -26 -16 -31 -14 -90 5 -122 18
-30 66 -61 95 -61 19 0 19 -2 5 -22 -21 -29 -20 -93 1 -128 35 -60 46 -61 393
-58 l315 3 50 67 50 68 273 0 272 0 0 340 0 340 -159 0 -159 0 -22 45 c-36 75
-110 132 -300 230 -203 105 -275 164 -306 253 -17 47 -21 52 -49 51 -16 0 -50
-7 -75 -14z"/>
<path d="M1220 905 c0 -2 12 -28 26 -58 l26 -53 -30 -48 c-65 -102 -70 -256
-11 -366 62 -117 184 -196 320 -207 38 -3 69 -3 69 0 0 3 -38 83 -85 178 -47
95 -85 184 -85 197 0 38 30 92 61 107 15 8 46 15 68 15 66 0 93 -33 185 -224
l82 -171 41 55 c57 77 76 142 72 243 -3 64 -10 94 -31 138 -34 68 -106 142
-169 175 -47 23 -54 24 -294 24 -135 0 -245 -2 -245 -5z"/>
</g>
</svg>
